<svg width="14" height="14" viewBox="0 0 14 14" fill="#7B8E98" xmlns="http://www.w3.org/2000/svg">
    <path fill-rule="evenodd" clip-rule="evenodd" d="M8.78938 11.0833C9.09562 11.0833 9.33329 10.8439 9.33329 10.5401C9.33329 10.3882 9.27387 10.2501 9.16875 10.1442L5.96927 6.99536L9.16875 3.85575C9.27387 3.74987 9.33329 3.60716 9.33329 3.45984C9.33329 3.15601 9.09562 2.91663 8.78938 2.91663C8.64312 2.91663 8.51514 2.97187 8.41459 3.07315L4.85859 6.57183C4.73062 6.69152 4.66663 6.83884 4.66663 6.99996C4.66663 7.16108 4.73062 7.29919 4.85402 7.42348L8.41002 10.9268C8.51514 11.0281 8.64312 11.0833 8.78938 11.0833Z" />
</svg>
